<?xml version="1.0" encoding="UTF-8" standalone="no"?>
<svg id="svg3336" xmlns:rdf="http://www.w3.org/1999/02/22-rdf-syntax-ns#" xmlns="http://www.w3.org/2000/svg" height="245px" width="276px" version="1.1" xmlns:cc="http://creativecommons.org/ns#" xmlns:xlink="http://www.w3.org/1999/xlink" viewBox="0 0 276 245" xmlns:dc="http://purl.org/dc/elements/1.1/">
<metadata id="metadata3365">
<rdf:RDF>
<cc:Work rdf:about="">
<dc:format>image/svg+xml</dc:format>
<dc:type rdf:resource="http://purl.org/dc/dcmitype/StillImage"/>
<dc:title>logo_login</dc:title>
</cc:Work>
</rdf:RDF>
</metadata>
<!-- Generator: Sketch 3.8.3 (29802) - http://www.bohemiancoding.com/sketch -->
<title id="title3338">logo_login</title>
<desc id="desc3340">Created with Sketch.</desc>
<rect id="rect3367" fill-rule="evenodd" height="322" width="371.38" stroke="#000" y="-26.391" x="-35.913" stroke-width="1px" fill="#00f"/>
<defs id="defs3342">
<rect id="path-1" rx="9.984" height="153.5" width="275.81" y=".112" x=".496"/>
<clipPath id="clipPath3415" clipPathUnits="userSpaceOnUse">
<use id="use3417" xlink:href="#path-1" height="100%" width="100%" y="0" x="0"/>
</clipPath>
</defs>
<use id="Rectangle-1" clip-path="url(#clipPath3415)" xlink:href="#path-1" transform="translate(-.4 .48997)" height="100%" width="100%" stroke="#ffffff" y="0" x="0" stroke-width="14.976" fill="none"/>
<g fill="#fff" fill-rule="evenodd">
<g id="S">
<path id="path3431" d="m154.05 87.843q0 8.9457-3.6741 12.54-3.9137 3.754-11.102 3.754-7.2684 0-11.022-3.754-3.6741-3.6741-3.6741-12.22h8.9457q0 4.5527 1.5974 6.3898 1.3578 1.5176 4.1534 1.5176 2.9553 0 4.3131-1.5974 1.5176-1.7572 1.5176-6.3099t-1.0383-6.23q-.95847-1.7572-4.3131-3.115l-6.7891-2.7955q-4.393-1.8371-6.1501-4.7923-1.7572-3.0351-1.7572-9.5048 0-7.9073 4.6326-12.061 3.9137-3.4345 9.7444-3.4345 6.6294 0 10.224 3.4345 3.9936 3.9137 3.9936 12.38h-8.9457q0-4.3131-1.3578-6.0703-1.278-1.6773-3.9936-1.6773-2.3962 0-3.8339 1.5974-1.5176 1.7572-1.5176 5.591 0 3.5144.87859 5.0319.87859 1.4377 3.8338 2.6358l6.7092 2.7156q5.0319 2.0767 6.7891 5.4313 1.8371 3.3546 1.8371 10.543z"/>
</g>
<rect id="Rectangle-2" height="13.728" width="6.24" y="36.058" x="135.5"/>
<rect id="rect3358" height="13.728" width="6.24" y="101.05" x="135.5"/>
<g id="mogul">
<path id="path3420" d="m82.523 223.56q.07442-3.2744.07442-14.512 0-7.1442-.07442-8.5209-.52093-8.1488-7.4047-8.1488-3.8326 0-7.1442 2.7163-3.4233 2.9395-3.6093 6.9581-.07442 1.6744-.07442 8.0744 0 9.0791.14884 13.433v.0744q0 2.9768-2.9395 2.9768-2.7907 0-2.7907-2.9768v-.0744q.07442-3.2744.07442-14.512 0-7.1442-.07442-8.5209-.48372-8.2977-7.3674-8.2977-3.8698 0-6.9953 2.7907-3.4233 3.014-3.6093 7.293-.07442 1.414-.07442 6.5488 0 5.693.14884 14.698v.0744q0 3.1256-2.8651 3.1256-3.014 0-3.014-3.2v-.0744q.29767-14.437.29767-21.172 0-4.6884-.14884-12.205v-.18605q0-2.7163 3.0512-2.7163 2.6791 0 2.8651 2.9023v1.5256q0 .52093.07442.52093.14884 0 .26046-.26046 4.0186-4.9116 10.828-4.9116 8.3721 0 10.902 7.2186 4.5767-7.2186 12.651-7.2186 5.0605 0 8.5953 3.2744 3.7953 3.5349 3.9442 9.5256.14884 6.8837.14884 19.758v3.8698q0 3.2744-2.9395 3.2744t-2.9395-3.0512v-.0744z"/>
<path id="path3422" d="m118.95 226.84q-8.4465 0-13.953-5.4698-5.5814-5.5814-5.5814-14.437 0-8.707 5.5814-14.363 5.5814-5.6558 13.953-5.6558 8.3721 0 13.953 5.6558 5.5814 5.6558 5.5814 14.363 0 8.8558-5.5814 14.437-5.507 5.4698-13.953 5.4698zm0-5.3954q5.8419 0 9.6744-3.9442 3.9442-4.093 3.9442-10.567 0-6.5116-4.0186-10.679-3.8326-4.0186-9.6-4.0186-5.7302 0-9.6 4.0186-4.0186 4.1674-4.0186 10.679 0 6.4744 4.0186 10.567 3.7953 3.9442 9.6 3.9442z"/>
<path id="path3424" d="m163.91 186.99q5.5814 0 9.8605 2.2698.81861.4093 1.2279.4093.55814 0 .96744-.29768 3.3116-2.0465 6.2512-2.0465 4.3535 0 4.3535 2.9395 0 2.7907-2.6419 2.7907-.4093 0-.63255-.0744-.40931-.11163-1.2279-.11163-1.6372 0-2.7163.74419-.8186.59534-.8186 1.0791l.14883.66977q.93024 2.3814.93024 4.986 0 5.6558-3.9442 9.1907-4.1302 3.6093-11.237 3.8698-4.2046.14884-6.9954 1.6372-2.9395 1.5628-2.9395 3.6837 0 1.8233 2.9395 2.307 1.9721.33488 9.2651.33488 6.3256 0 8.6326.48373 4.9116.89302 7.8884 3.6837 3.0884 3.0512 3.0884 7.4046 0 6.6977-5.8791 10.828-5.9163 4.0186-15.107 4.0186-8.7814 0-14.028-3.6093-5.0233-3.4605-5.0233-8.7814 0-6.6605 7.4791-9.6.74419-.26046.74419-.4093 0-.0744-1.0791-.33488-4.7628-1.3023-4.7628-5.6558 0-4.614 5.507-7.4791.81861-.48372.81861-.66977 0 .11163-.96744-.63255-5.507-3.5349-5.507-10.195 0-6.214 4.6512-10.009 4.3535-3.4233 10.605-3.4233h.14884zm16.26 46.251q0-4.5767-4.9116-6.0651-2.7907-.89303-9.3768-.89303-6.8837 0-10.642 2.8651-3.2 2.4558-3.2 5.8419 0 2.3814 2.2698 4.4279 3.386 3.1256 10.679 3.1256 6.5488 0 10.753-2.307 4.4279-2.5674 4.4279-6.9954zm-6.1395-33.042q0-4.0186-2.9767-6.2512-2.7163-2.0465-7.0326-2.0465-4.0558 0-6.8093 2.2326-3.0512 2.2698-3.0512 6.1395 0 4.1674 2.8651 6.4 2.5302 1.9721 6.8093 1.9721 3.5349 0 6.3256-1.6372 3.8698-2.307 3.8698-6.8093z"/>
<path id="path3426" d="m227.24 190.26q-.33488 14.288-.33488 19.684 0 7.5535 2.3814 11.423.66976.96745.66976 2.0465 0 2.9395-3.1256 2.9395-2.0465 0-3.3488-2.4558-.81861-1.4884-1.0047-2.9395-.0744-.52093-.22325-.52093-.11163 0-.26047.26047-4.614 6.2512-12.874 6.2512-5.6558 0-9.4512-3.3116-4.1674-3.6093-4.4279-10.084-.14883-5.2465-.14883-14.177 0-6.8093.0744-9.0419 0-3.014 3.014-3.014 3.0512 0 3.0512 2.7907v.0744q-.14883 6.8837-.14883 15.07 0 4.9488.14883 7.5535.55814 8.8558 8.3721 8.8558 4.2791 0 7.7023-2.9395 3.6837-3.014 3.8698-7.5535.14884-5.0605.14884-7.7023l-.22326-13.358q0-2.9023 2.9395-2.9023 3.2 0 3.2 2.9767v.0744z"/>
<path id="path3428" d="m248.1 223.01q0 3.2-3.1256 3.2-3.2 0-3.2-3.2v-.0744q.18605-5.9163.18605-28.912 0-21.805-.18605-25.191-.0744-3.2744 3.1256-3.2744t3.2 3.1256v.0744q-.14884 7.8884-.14884 29.619 0 18.716.14884 24.558v.0744z"/>
</g>
</g>
</svg>
