<?xml version="1.0" encoding="UTF-8" standalone="no"?>
<svg
   xmlns:dc="http://purl.org/dc/elements/1.1/"
   xmlns:cc="http://creativecommons.org/ns#"
   xmlns:rdf="http://www.w3.org/1999/02/22-rdf-syntax-ns#"
   xmlns:svg="http://www.w3.org/2000/svg"
   xmlns="http://www.w3.org/2000/svg"
   xmlns:xlink="http://www.w3.org/1999/xlink"
   xmlns:sodipodi="http://sodipodi.sourceforge.net/DTD/sodipodi-0.dtd"
   xmlns:inkscape="http://www.inkscape.org/namespaces/inkscape"
   width="315.80801"
   height="287.1857"
   viewBox="0 0 315.80801 287.1857"
   version="1.1"
   id="svg3336"
   inkscape:version="0.91 r13725"
   sodipodi:docname="logo_login.svg"
   inkscape:export-filename="C:\Users\hkp925\Documents\GitHub\mogul\design\android-studio\logo_login.png"
   inkscape:export-xdpi="180"
   inkscape:export-ydpi="180">
  <metadata
     id="metadata3365">
    <rdf:RDF>
      <cc:Work
         rdf:about="">
        <dc:format>image/svg+xml</dc:format>
        <dc:type
           rdf:resource="http://purl.org/dc/dcmitype/StillImage" />
        <dc:title>logo_login</dc:title>
      </cc:Work>
    </rdf:RDF>
  </metadata>
  <sodipodi:namedview
     pagecolor="#ffffff"
     bordercolor="#666666"
     borderopacity="1"
     objecttolerance="10"
     gridtolerance="10"
     guidetolerance="10"
     inkscape:pageopacity="0"
     inkscape:pageshadow="2"
     inkscape:window-width="1920"
     inkscape:window-height="1018"
     id="namedview3363"
     showgrid="false"
     inkscape:zoom="2.9562753"
     inkscape:cx="157.90401"
     inkscape:cy="143.59285"
     inkscape:window-x="-8"
     inkscape:window-y="-8"
     inkscape:window-maximized="1"
     inkscape:current-layer="svg3336"
     fit-margin-top="20"
     fit-margin-left="20"
     fit-margin-right="20"
     fit-margin-bottom="20" />
  <!-- Generator: Sketch 3.8.3 (29802) - http://www.bohemiancoding.com/sketch -->
  <title
     id="title3338">logo_login</title>
  <desc
     id="desc3340">Created with Sketch.</desc>
  <defs
     id="defs3342">
    <rect
       id="path-1"
       x="0.49599999"
       y="0.112"
       width="275.80801"
       height="153.504"
       rx="9.9840002" />
    <clipPath
       clipPathUnits="userSpaceOnUse"
       id="clipPath3415">
      <use
         height="100%"
         width="100%"
         y="0"
         x="0"
         xlink:href="#path-1"
         id="use3417" />
    </clipPath>
  </defs>
  <use
     id="Rectangle-1"
     mask="none"
     xlink:href="#path-1"
     style="fill:none;fill-rule:evenodd;stroke:#ffffff;stroke-width:14.97599983"
     x="0"
     y="0"
     width="100%"
     height="100%"
     transform="translate(19.504,19.888)"
     clip-path="url(#clipPath3415)" />
  <g
     id="g3433"
     transform="translate(18.586122,19.398032)">
    <g
       id="S"
       style="font-weight:bold;font-size:79.87200165px;font-family:DINCondensed-Bold, 'DIN Condensed';fill:#ffffff;fill-rule:evenodd;stroke:none;stroke-width:1">
      <path
         id="path3431"
         style="font-style:normal;font-variant:normal;font-weight:bold;font-stretch:condensed;font-family:DINPro;-inkscape-font-specification:'DINPro Bold Condensed'"
         d="m 154.05427,87.843272 q 0,8.945664 -3.67411,12.539908 -3.91373,3.75398 -11.10221,3.75398 -7.26835,0 -11.02234,-3.75398 -3.67411,-3.674116 -3.67411,-12.22042 l 8.94566,0 q 0,4.552704 1.59744,6.38976 1.35783,1.517568 4.15335,1.517568 2.95526,0 4.31309,-1.59744 1.51756,-1.757184 1.51756,-6.309888 0,-4.552704 -1.03833,-6.230016 -0.95847,-1.757184 -4.31309,-3.115008 l -6.78912,-2.79552 q -4.39296,-1.837056 -6.15014,-4.79232 -1.75719,-3.035136 -1.75719,-9.504769 0,-7.907328 4.63258,-12.060672 3.91373,-3.434496 9.74438,-3.434496 6.62938,0 10.22362,3.434496 3.9936,3.913728 3.9936,12.38016 l -8.94567,0 q 0,-4.313088 -1.35782,-6.070272 -1.27795,-1.677312 -3.9936,-1.677312 -2.39616,0 -3.83386,1.59744 -1.51756,1.757184 -1.51756,5.59104 0,3.514369 0.87859,5.031937 0.87859,1.437696 3.83385,2.635776 l 6.70925,2.715648 q 5.03194,2.076672 6.78912,5.431296 1.83706,3.354624 1.83706,10.543104 z"
         inkscape:connector-curvature="0" />
    </g>
    <rect
       id="Rectangle-2"
       x="135.504"
       y="36.057716"
       width="6.2399998"
       height="13.728"
       style="fill:#ffffff;fill-rule:evenodd;stroke:none;stroke-width:1" />
    <rect
       id="rect3358"
       x="135.504"
       y="101.05188"
       width="6.2399998"
       height="13.728"
       style="fill:#ffffff;fill-rule:evenodd;stroke:none;stroke-width:1" />
  </g>
  <g
     style="font-weight:normal;font-size:80px;font-family:TsukuARdGothic-Regular, 'Tsukushi A Round Gothic';fill:#ffffff;fill-rule:evenodd;stroke:none;stroke-width:1"
     id="mogul"
     transform="translate(16.389689,19.398032)">
    <path
       d="m 82.523255,223.56439 q 0.07442,-3.27442 0.07442,-14.51162 0,-7.14419 -0.07442,-8.52093 -0.52093,-8.14884 -7.404651,-8.14884 -3.832558,0 -7.144186,2.71628 -3.423256,2.93953 -3.609302,6.95814 -0.07442,1.67442 -0.07442,8.07442 0,9.07907 0.148838,13.43255 l 0,0.0744 q 0,2.97675 -2.939535,2.97675 -2.790698,0 -2.790698,-2.97675 l 0,-0.0744 q 0.07442,-3.27442 0.07442,-14.51162 0,-7.14419 -0.07442,-8.52093 -0.483721,-8.29768 -7.367442,-8.29768 -3.869767,0 -6.995349,2.7907 -3.423256,3.01395 -3.609302,7.29302 -0.07442,1.41396 -0.07442,6.54884 0,5.69302 0.148838,14.69767 l 0,0.0744 q 0,3.12558 -2.865117,3.12558 -3.013953,0 -3.013953,-3.2 l 0,-0.0744 q 0.297674,-14.4372 0.297674,-21.17209 0,-4.68837 -0.148837,-12.20465 l 0,-0.18605 q 0,-2.71627 3.051163,-2.71627 2.67907,0 2.865116,2.90232 l 0,1.52558 q 0,0.52093 0.07442,0.52093 0.148837,0 0.260465,-0.26046 4.018604,-4.91163 10.827907,-4.91163 8.372093,0 10.902325,7.2186 4.576745,-7.2186 12.651163,-7.2186 5.060465,0 8.595349,3.27442 3.795349,3.53488 3.944186,9.52558 0.148837,6.88372 0.148837,19.75814 l 0,3.86977 q 0,3.27441 -2.939535,3.27441 -2.939535,0 -2.939535,-3.05116 l 0,-0.0744 z"
       style="font-style:normal;font-variant:normal;font-weight:normal;font-stretch:normal;font-family:'SBT-TsukuARdGothic Std M';-inkscape-font-specification:'SBT-TsukuARdGothic Std M'"
       id="path3420"
       inkscape:connector-curvature="0" />
    <path
       d="m 118.94608,226.83881 q -8.44652,0 -13.95349,-5.46977 -5.581399,-5.58139 -5.581399,-14.4372 0,-8.70698 5.581399,-14.3628 5.58139,-5.65581 13.95349,-5.65581 8.37209,0 13.95348,5.65581 5.5814,5.65582 5.5814,14.3628 0,8.85581 -5.5814,14.4372 -5.50697,5.46977 -13.95348,5.46977 z m 0,-5.39535 q 5.84186,0 9.67441,-3.94418 3.94419,-4.09303 3.94419,-10.56744 0,-6.51163 -4.0186,-10.67907 -3.83256,-4.01861 -9.6,-4.01861 -5.73024,0 -9.6,4.01861 -4.01861,4.16744 -4.01861,10.67907 0,6.47441 4.01861,10.56744 3.79534,3.94418 9.6,3.94418 z"
       style="font-style:normal;font-variant:normal;font-weight:normal;font-stretch:normal;font-family:'SBT-TsukuARdGothic Std M';-inkscape-font-specification:'SBT-TsukuARdGothic Std M'"
       id="path3422"
       inkscape:connector-curvature="0" />
    <path
       d="m 163.90843,186.98765 q 5.5814,0 9.86046,2.26977 0.81861,0.4093 1.22791,0.4093 0.55814,0 0.96744,-0.29768 3.31163,-2.04651 6.25117,-2.04651 4.35348,0 4.35348,2.93954 0,2.7907 -2.64186,2.7907 -0.4093,0 -0.63255,-0.0744 -0.40931,-0.11163 -1.22791,-0.11163 -1.63721,0 -2.71628,0.74419 -0.8186,0.59534 -0.8186,1.07906 l 0.14883,0.66977 q 0.93024,2.3814 0.93024,4.98605 0,5.65581 -3.94419,9.1907 -4.13023,3.6093 -11.23721,3.86976 -4.20465,0.14884 -6.99535,1.63721 -2.93953,1.56279 -2.93953,3.68372 0,1.82326 2.93953,2.30698 1.97209,0.33488 9.26512,0.33488 6.32558,0 8.63256,0.48373 4.91162,0.89302 7.88837,3.68372 3.08837,3.05116 3.08837,7.40465 0,6.69767 -5.87907,10.8279 -5.91628,4.01861 -15.10698,4.01861 -8.78139,0 -14.0279,-3.6093 -5.02326,-3.46047 -5.02326,-8.7814 0,-6.66046 7.47907,-9.6 0.74419,-0.26046 0.74419,-0.4093 0,-0.0744 -1.07907,-0.33488 -4.76279,-1.30233 -4.76279,-5.65582 0,-4.61395 5.50697,-7.47907 0.81861,-0.48372 0.81861,-0.66977 0,0.11163 -0.96744,-0.63255 -5.50698,-3.53489 -5.50698,-10.19535 0,-6.21396 4.65116,-10.0093 4.35349,-3.42326 10.60465,-3.42326 l 0.14884,0 z m 16.26046,46.25116 q 0,-4.57674 -4.91162,-6.06511 -2.7907,-0.89303 -9.37675,-0.89303 -6.88372,0 -10.64186,2.86512 -3.2,2.45581 -3.2,5.84186 0,2.38139 2.26977,4.42791 3.38605,3.12558 10.67907,3.12558 6.54884,0 10.75349,-2.30698 4.4279,-2.56744 4.4279,-6.99535 z m -6.13953,-33.04186 q 0,-4.0186 -2.97674,-6.25116 -2.71628,-2.04651 -7.03256,-2.04651 -4.05582,0 -6.8093,2.23256 -3.05117,2.26976 -3.05117,6.13953 0,4.16744 2.86512,6.4 2.53023,1.97209 6.8093,1.97209 3.53488,0 6.32558,-1.63721 3.86977,-2.30697 3.86977,-6.8093 z"
       style="font-style:normal;font-variant:normal;font-weight:normal;font-stretch:normal;font-family:'SBT-TsukuARdGothic Std M';-inkscape-font-specification:'SBT-TsukuARdGothic Std M'"
       id="path3424"
       inkscape:connector-curvature="0" />
    <path
       d="m 227.23764,190.26207 q -0.33488,14.28837 -0.33488,19.68372 0,7.55349 2.3814,11.42325 0.66976,0.96745 0.66976,2.04652 0,2.93953 -3.12558,2.93953 -2.04651,0 -3.34883,-2.45581 -0.81861,-1.48837 -1.00466,-2.93954 -0.0744,-0.52093 -0.22325,-0.52093 -0.11163,0 -0.26047,0.26047 -4.61395,6.25116 -12.87442,6.25116 -5.65581,0 -9.45116,-3.31163 -4.16744,-3.6093 -4.42791,-10.08372 -0.14883,-5.24651 -0.14883,-14.17674 0,-6.80931 0.0744,-9.04186 0,-3.01396 3.01395,-3.01396 3.05116,0 3.05116,2.7907 l 0,0.0744 q -0.14883,6.88372 -0.14883,15.06977 0,4.94883 0.14883,7.55349 0.55814,8.85581 8.3721,8.85581 4.27907,0 7.70232,-2.93954 3.68372,-3.01395 3.86977,-7.55348 0.14884,-5.06047 0.14884,-7.70233 l -0.22326,-13.35814 q 0,-2.90232 2.93953,-2.90232 3.2,0 3.2,2.97674 l 0,0.0744 z"
       style="font-style:normal;font-variant:normal;font-weight:normal;font-stretch:normal;font-family:'SBT-TsukuARdGothic Std M';-inkscape-font-specification:'SBT-TsukuARdGothic Std M'"
       id="path3426"
       inkscape:connector-curvature="0" />
    <path
       d="m 248.09608,223.00625 q 0,3.2 -3.12559,3.2 -3.2,0 -3.2,-3.2 l 0,-0.0744 q 0.18605,-5.91628 0.18605,-28.91163 0,-21.80465 -0.18605,-25.1907 -0.0744,-3.27442 3.12559,-3.27442 3.2,0 3.2,3.12558 l 0,0.0744 q -0.14884,7.88837 -0.14884,29.61861 0,18.71627 0.14884,24.55814 l 0,0.0744 z"
       style="font-style:normal;font-variant:normal;font-weight:normal;font-stretch:normal;font-family:'SBT-TsukuARdGothic Std M';-inkscape-font-specification:'SBT-TsukuARdGothic Std M'"
       id="path3428"
       inkscape:connector-curvature="0" />
  </g>
</svg>
