<?xml version="1.0" encoding="UTF-8" standalone="no"?>
<svg
   xmlns:dc="http://purl.org/dc/elements/1.1/"
   xmlns:cc="http://creativecommons.org/ns#"
   xmlns:rdf="http://www.w3.org/1999/02/22-rdf-syntax-ns#"
   xmlns:svg="http://www.w3.org/2000/svg"
   xmlns="http://www.w3.org/2000/svg"
   xmlns:xlink="http://www.w3.org/1999/xlink"
   xmlns:sodipodi="http://sodipodi.sourceforge.net/DTD/sodipodi-0.dtd"
   xmlns:inkscape="http://www.inkscape.org/namespaces/inkscape"
   width="400"
   height="400"
   viewBox="0 0 400 400"
   version="1.1"
   id="svg3336"
   inkscape:version="0.91 r13725"
   sodipodi:docname="app_icon.svg"
   inkscape:export-filename="C:\Users\hkp925\Documents\GitHub\mogul\design\android-studio\logo_login.png"
   inkscape:export-xdpi="180"
   inkscape:export-ydpi="180">
  <metadata
     id="metadata3365">
    <rdf:RDF>
      <cc:Work
         rdf:about="">
        <dc:format>image/svg+xml</dc:format>
        <dc:type
           rdf:resource="http://purl.org/dc/dcmitype/StillImage" />
        <dc:title>logo_login</dc:title>
      </cc:Work>
    </rdf:RDF>
  </metadata>
  <sodipodi:namedview
     pagecolor="#ffffff"
     bordercolor="#666666"
     borderopacity="1"
     objecttolerance="10"
     gridtolerance="10"
     guidetolerance="10"
     inkscape:pageopacity="0"
     inkscape:pageshadow="2"
     inkscape:window-width="1920"
     inkscape:window-height="1018"
     id="namedview3363"
     showgrid="false"
     inkscape:zoom="2.1225"
     inkscape:cx="200"
     inkscape:cy="200"
     inkscape:window-x="-8"
     inkscape:window-y="-8"
     inkscape:window-maximized="1"
     inkscape:current-layer="svg3336"
     fit-margin-top="20"
     fit-margin-left="20"
     fit-margin-right="20"
     fit-margin-bottom="20" />
  <!-- Generator: Sketch 3.8.3 (29802) - http://www.bohemiancoding.com/sketch -->
  <title
     id="title3338">logo_login</title>
  <desc
     id="desc3340">Created with Sketch.</desc>
  <defs
     id="defs3342">
    <rect
       id="path-1"
       x="0.49599999"
       y="0.112"
       width="275.80801"
       height="153.504"
       rx="9.9840002" />
  </defs>
  <use
     id="use3417"
     xlink:href="#path-1"
     x="0"
     y="0"
     width="100%"
     height="100%"
     transform="matrix(1.1806658,0,0,1.1806658,36.595845,109.24931)"
     style="fill:#7ed321;fill-opacity:1;stroke:#ffffff;stroke-width:33.87918918;stroke-miterlimit:4;stroke-dasharray:none;stroke-opacity:1" />
  <use
     style="fill:#7ed321;fill-opacity:1;stroke:none;stroke-width:25.4093914;stroke-miterlimit:4;stroke-dasharray:none;stroke-opacity:1"
     transform="matrix(1.1806658,0,0,1.1806658,36.595845,109.24931)"
     height="100%"
     width="100%"
     y="0"
     x="0"
     xlink:href="#path-1"
     id="use4211" />
  <g
     id="g3433"
     transform="matrix(1.2689987,0,0,1.2689987,23.205785,104.29364)">
    <g
       id="S"
       style="font-weight:bold;font-size:79.87200165px;font-family:DINCondensed-Bold, 'DIN Condensed';fill:#ffffff;fill-rule:evenodd;stroke:none;stroke-width:1">
      <path
         id="path3431"
         style="font-style:normal;font-variant:normal;font-weight:bold;font-stretch:condensed;font-family:DINPro;-inkscape-font-specification:'DINPro Bold Condensed'"
         d="m 154.05427,87.843272 q 0,8.945664 -3.67411,12.539908 -3.91373,3.75398 -11.10221,3.75398 -7.26835,0 -11.02234,-3.75398 -3.67411,-3.674116 -3.67411,-12.22042 l 8.94566,0 q 0,4.552704 1.59744,6.38976 1.35783,1.517568 4.15335,1.517568 2.95526,0 4.31309,-1.59744 1.51756,-1.757184 1.51756,-6.309888 0,-4.552704 -1.03833,-6.230016 -0.95847,-1.757184 -4.31309,-3.115008 l -6.78912,-2.79552 q -4.39296,-1.837056 -6.15014,-4.79232 -1.75719,-3.035136 -1.75719,-9.504769 0,-7.907328 4.63258,-12.060672 3.91373,-3.434496 9.74438,-3.434496 6.62938,0 10.22362,3.434496 3.9936,3.913728 3.9936,12.38016 l -8.94567,0 q 0,-4.313088 -1.35782,-6.070272 -1.27795,-1.677312 -3.9936,-1.677312 -2.39616,0 -3.83386,1.59744 -1.51756,1.757184 -1.51756,5.59104 0,3.514369 0.87859,5.031937 0.87859,1.437696 3.83385,2.635776 l 6.70925,2.715648 q 5.03194,2.076672 6.78912,5.431296 1.83706,3.354624 1.83706,10.543104 z"
         inkscape:connector-curvature="0" />
    </g>
    <rect
       id="Rectangle-2"
       x="135.504"
       y="36.057716"
       width="6.2399998"
       height="13.728"
       style="fill:#ffffff;fill-rule:evenodd;stroke:none;stroke-width:1" />
    <rect
       id="rect3358"
       x="135.504"
       y="101.05188"
       width="6.2399998"
       height="13.728"
       style="fill:#ffffff;fill-rule:evenodd;stroke:none;stroke-width:1" />
  </g>
</svg>
